<?xml version="1.0" standalone="no"?>
<!DOCTYPE svg PUBLIC "-//W3C//DTD SVG 20010904//EN"
 "http://www.w3.org/TR/2001/REC-SVG-20010904/DTD/svg10.dtd">
<svg version="1.0" xmlns="http://www.w3.org/2000/svg"
 width="594.000000pt" height="594.000000pt" viewBox="0 0 594.000000 594.000000"
 preserveAspectRatio="xMidYMid meet">
<metadata>
Created by potrace 1.14, written by Peter Selinger 2001-2017
</metadata>
<g transform="translate(0.000000,594.000000) scale(0.100000,-0.100000)"
fill="#000000" stroke="none">
<path d="M2373 4626 c-8 -9 -13 -58 -14 -136 -2 -136 7 -158 55 -146 29 7 29
4 28 165 -1 62 -6 109 -13 117 -14 18 -40 17 -56 0z"/>
<path d="M1712 4448 c-17 -17 -15 -32 8 -75 51 -96 107 -178 123 -181 23 -5
47 15 47 38 0 19 -107 211 -124 222 -17 11 -41 9 -54 -4z"/>
<path d="M3022 4433 c-37 -54 -112 -192 -112 -206 0 -23 27 -40 52 -33 16 4
35 28 58 72 19 37 40 72 45 78 6 6 18 28 27 48 16 34 16 39 2 53 -23 23 -50
18 -72 -12z"/>
<path d="M2255 4075 c-87 -16 -195 -55 -250 -89 -110 -69 -127 -87 -118 -114
8 -23 -54 -80 -81 -75 -30 6 -82 -59 -136 -172 -53 -109 -71 -189 -75 -328 -8
-285 115 -526 351 -690 l62 -43 -29 -13 c-80 -35 -182 -161 -218 -269 -12 -34
-31 -82 -43 -106 -20 -43 -21 -46 -4 -71 10 -15 20 -39 22 -53 42 -240 229
-414 459 -428 39 -2 153 -4 255 -4 125 0 203 -5 238 -14 45 -12 54 -12 66 0 8
8 31 14 52 14 l37 0 -21 -23 c-29 -31 -28 -37 13 -77 31 -30 38 -33 55 -22 19
11 20 10 20 -23 l0 -35 60 0 60 0 0 35 c0 32 2 34 19 23 17 -10 24 -7 55 24
20 20 36 40 36 44 0 4 -10 18 -22 31 l-21 23 38 0 c22 0 42 -6 49 -15 10 -13
18 -13 66 0 39 10 129 15 310 18 270 4 283 6 389 60 48 24 146 114 177 162
130 206 104 454 -66 626 -74 75 -181 133 -267 144 -55 7 -57 10 -68 73 -18
105 -91 229 -188 317 -80 74 -213 138 -307 150 -20 2 -25 19 -21 62 8 64 -5
202 -24 272 -84 297 -318 515 -630 587 -50 12 -236 11 -300 -1z"/>
<path d="M1232 3968 c-16 -16 -15 -46 2 -64 8 -8 17 -14 20 -14 3 0 43 -22 90
-50 90 -53 116 -60 136 -35 23 28 -6 57 -114 118 -111 61 -116 63 -134 45z"/>
<path d="M3441 3925 c-115 -65 -132 -82 -120 -112 13 -35 45 -29 138 27 46 28
88 50 92 50 9 0 39 40 39 52 0 11 -31 38 -43 38 -7 0 -54 -25 -106 -55z"/>
<path d="M1050 3306 c-14 -14 -12 -42 4 -58 10 -10 43 -14 127 -13 129 1 159
8 159 35 0 43 -24 50 -156 48 -68 -1 -128 -6 -134 -12z"/>
<path d="M3476 3304 c-21 -20 -20 -30 2 -52 16 -16 35 -18 141 -17 108 1 125
3 137 20 12 16 12 22 0 39 -12 19 -25 21 -139 24 -103 2 -128 0 -141 -14z"/>
<path d="M1410 2753 c-19 -10 -37 -20 -40 -24 -3 -3 -29 -19 -59 -33 -73 -38
-105 -70 -92 -95 17 -31 36 -31 92 0 30 17 62 32 72 36 9 3 17 9 17 13 0 4 18
15 40 25 22 10 40 21 40 26 0 4 3 14 6 22 5 14 -19 47 -34 47 -4 0 -23 -8 -42
-17z"/>
</g>
</svg>
